<?xml version="1.0" encoding="UTF-8"?>
<svg id="Logo_Business" data-name="Logo Business" xmlns="http://www.w3.org/2000/svg" viewBox="0 0 1105.51 595.28">
  <defs>
    <style>
      .cls-1 {
        fill: none;
      }

      .cls-2 {
        fill: #0047ba;
      }
    </style>
  </defs>
  <g>
    <path class="cls-2" d="M663.42,284.33v36.34h45.06c-8.62,18.84-28.32,30.68-53.14,30.68-34.16,0-57.31-21.71-57.31-53.14,0-29.71,21.49-54.28,57.31-54.28,17.25,0,31.47,5.88,41.49,15.37l64.47-21.48c-22.39-29.11-61.37-46.21-105.69-46.21-69.39,0-125.71,41.9-125.71,106.24s56.33,105.82,125.71,105.82,125.71-39.79,125.71-105.82c0-4.63-.29-9.14-.86-13.52h-117.04Z"/>
    <path class="cls-2" d="M443.3,400.49h-119.12v-205.71h102.94c45.92.42,91.41,11,91.41,57.14,0,17.78-10.06,35.55-31.49,41.48v1.69c26.68,7.62,42.86,24.13,42.86,48.68,0,41.48-44.17,56.3-86.59,56.72ZM410.62,233.65h-23.39v45.42h23.39c18.1-.65,36.2-3.89,36.2-23.36s-18.77-22.06-36.2-22.06ZM411.27,309.79h-24.03v51.83h24.69c20.5-.64,45.62-3.84,45.62-26.24s-25.79-24.96-46.28-25.6Z"/>
  </g>
  <g>
    <rect class="cls-1" x="232.05" y="194.88" width="641.25" height="205.71"/>
    <rect class="cls-1" x="323.92" y="103.12" width="457.4" height="389.35"/>
    <rect class="cls-1" x="232.05" y="103.12" width="91.87" height="91.87"/>
    <rect class="cls-1" x="232.05" y="400.59" width="91.87" height="91.87"/>
    <rect class="cls-1" x="781.42" y="103.12" width="91.87" height="91.87"/>
    <rect class="cls-1" x="781.42" y="400.59" width="91.87" height="91.87"/>
  </g>
</svg>